P3
64 64 255
20 80 10
20 80 10
20 80 10
20 80 10
20 80 10
20 80 10
20 80 10
20 80 10
20 80 10
20 80 10
20 80 10
20 80 10
20 80 10
20 80 10
20 80 10
20 80 10
20 80 10
20 80 10
20 80 10
20 80 10
20 80 10
20 80 10
20 80 10
20 80 10
20 80 10
20 80 10
20 80 10
20 80 10
20 80 10
20 80 10
20 80 10
20 80 10
20 80 10
20 80 10
20 80 10
20 80 10
20 80 10
20 80 10
20 80 10
20 80 10
20 80 10
20 80 10
20 80 10
20 80 10
20 80 10
20 80 10
20 80 10
20 80 10
20 80 10
20 80 10
20 80 10
20 80 10
20 80 10
20 80 10
20 80 10
20 80 10
20 80 10
20 80 10
20 80 10
20 80 10
20 80 10
20 80 10
20 80 10
20 80 10
20 80 10
20 80 10
20 80 10
20 80 10
20 80 10
20 80 10
20 80 10
20 80 10
20 80 10
20 80 10
20 80 10
20 80 10
20 80 10
20 80 10
20 80 10
20 80 10
20 80 10
20 80 10
20 80 10
20 80 10
20 80 10
20 80 10
20 80 10
20 80 10
20 80 10
20 80 10
20 80 10
20 80 10
20 80 10
20 80 10
20 80 10
20 80 10
20 80 10
20 80 10
20 80 10
20 80 10
20 80 10
20 80 10
20 80 10
20 80 10
20 80 10
20 80 10
20 80 10
20 80 10
20 80 10
20 80 10
20 80 10
20 80 10
20 80 10
20 80 10
20 80 10
20 80 10
20 80 10
20 80 10
20 80 10
20 80 10
20 80 10
20 80 10
20 80 10
20 80 10
20 80 10
20 80 10
20 80 10
20 80 10
20 80 10
20 80 10
20 80 10
20 80 10
20 80 10
20 80 10
20 80 10
20 80 10
20 80 10
20 80 10
20 80 10
20 80 10
20 80 10
20 80 10
20 80 10
20 80 10
20 80 10
20 80 10
20 80 10
20 80 10
20 80 10
20 80 10
20 80 10
20 80 10
20 80 10
20 80 10
20 80 10
20 80 10
20 80 10
20 80 10
20 80 10
20 80 10
20 80 10
20 80 10
20 80 10
20 80 10
20 80 10
20 80 10
20 80 10
20 80 10
20 80 10
20 80 10
20 80 10
20 80 10
20 80 10
20 80 10
20 80 10
20 80 10
20 80 10
20 80 10
20 80 10
20 80 10
20 80 10
20 80 10
20 80 10
20 80 10
20 80 10
20 80 10
20 80 10
20 80 10
20 80 10
20 80 10
20 80 10
20 80 10
20 80 10
20 80 10
20 80 10
20 80 10
20 80 10
20 80 10
20 80 10
20 80 10
20 80 10
20 80 10
20 80 10
20 80 10
20 80 10
20 80 10
20 80 10
20 80 10
20 80 10
20 80 10
20 80 10
20 80 10
20 80 10
20 80 10
20 80 10
20 80 10
20 80 10
20 80 10
20 80 10
20 80 10
20 80 10
20 80 10
20 80 10
20 80 10
20 80 10
20 80 10
20 80 10
20 80 10
20 80 10
20 80 10
20 80 10
20 80 10
20 80 10
20 80 10
20 80 10
20 80 10
20 80 10
20 80 10
20 80 10
20 80 10
20 80 10
20 80 10
20 80 10
20 80 10
20 80 10
20 80 10
20 80 10
20 80 10
20 80 10
20 80 10
20 80 10
20 80 10
20 80 10
20 80 10
20 80 10
20 80 10
20 80 10
20 80 10
20 80 10
20 80 10
20 80 10
20 80 10
20 80 10
20 80 10
20 80 10
20 80 10
20 80 10
20 80 10
20 80 10
20 80 10
20 80 10
20 80 10
20 80 10
20 80 10
20 80 10
20 80 10
20 80 10
20 80 10
20 80 10
20 80 10
20 80 10
20 80 10
20 80 10
20 80 10
20 80 10
20 80 10
20 80 10
20 80 10
20 80 10
20 80 10
20 80 10
20 80 10
20 80 10
20 80 10
20 80 10
20 80 10
20 80 10
20 80 10
20 80 10
20 80 10
20 80 10
20 80 10
20 80 10
20 80 10
20 80 10
20 80 10
20 80 10
20 80 10
20 80 10
20 80 10
20 80 10
20 80 10
20 80 10
20 80 10
20 80 10
20 80 10
20 80 10
20 80 10
20 80 10
20 80 10
20 80 10
20 80 10
20 80 10
20 80 10
20 80 10
20 80 10
20 80 10
20 80 10
20 80 10
20 80 10
20 80 10
20 80 10
20 80 10
20 80 10
20 80 10
20 80 10
20 80 10
20 80 10
20 80 10
20 80 10
20 80 10
20 80 10
20 80 10
20 80 10
20 80 10
20 80 10
20 80 10
20 80 10
20 80 10
20 80 10
20 80 10
20 80 10
20 80 10
20 80 10
20 80 10
20 80 10
20 80 10
20 80 10
20 80 10
20 80 10
20 80 10
20 80 10
20 80 10
20 80 10
20 80 10
20 80 10
20 80 10
20 80 10
20 80 10
20 80 10
20 80 10
20 80 10
20 80 10
20 80 10
20 80 10
20 80 10
20 80 10
20 80 10
20 80 10
20 80 10
20 80 10
20 80 10
20 80 10
20 80 10
20 80 10
20 80 10
20 80 10
20 80 10
20 80 10
20 80 10
20 80 10
20 80 10
20 80 10
20 80 10
20 80 10
20 80 10
20 80 10
20 80 10
20 80 10
20 80 10
20 80 10
20 80 10
20 80 10
20 80 10
20 80 10
20 80 10
20 80 10
20 80 10
20 80 10
20 80 10
20 80 10
20 80 10
20 80 10
20 80 10
20 80 10
20 80 10
20 80 10
20 80 10
20 80 10
20 80 10
20 80 10
20 80 10
20 80 10
20 80 10
20 80 10
20 80 10
20 80 10
20 80 10
20 80 10
20 80 10
20 80 10
20 80 10
20 80 10
20 80 10
20 80 10
20 80 10
20 80 10
20 80 10
20 80 10
20 80 10
20 80 10
20 80 10
20 80 10
20 80 10
20 80 10
20 80 10
20 80 10
20 80 10
20 80 10
20 80 10
20 80 10
20 80 10
20 80 10
20 80 10
20 80 10
20 80 10
20 80 10
20 80 10
20 80 10
20 80 10
20 80 10
20 80 10
20 80 10
20 80 10
20 80 10
20 80 10
20 80 10
20 80 10
20 80 10
20 80 10
20 80 10
20 80 10
20 80 10
20 80 10
20 80 10
20 80 10
20 80 10
20 80 10
20 80 10
20 80 10
20 80 10
20 80 10
20 80 10
20 80 10
20 80 10
20 80 10
20 80 10
20 80 10
20 80 10
20 80 10
20 80 10
20 80 10
20 80 10
20 80 10
20 80 10
20 80 10
20 80 10
20 80 10
20 80 10
20 80 10
20 80 10
20 80 10
20 80 10
20 80 10
20 80 10
20 80 10
20 80 10
20 80 10
20 80 10
20 80 10
20 80 10
20 80 10
20 80 10
20 80 10
20 80 10
20 80 10
20 80 10
20 80 10
20 80 10
20 80 10
20 80 10
20 80 10
20 80 10
20 80 10
20 80 10
20 80 10
20 80 10
20 80 10
20 80 10
20 80 10
20 80 10
20 80 10
20 80 10
20 80 10
20 80 10
20 80 10
20 80 10
20 80 10
20 80 10
20 80 10
20 80 10
20 80 10
20 80 10
20 80 10
20 80 10
20 80 10
20 80 10
20 80 10
20 80 10
20 80 10
20 80 10
20 80 10
20 80 10
20 80 10
20 80 10
20 80 10
20 80 10
20 80 10
20 80 10
20 80 10
20 80 10
20 80 10
20 80 10
20 80 10
20 80 10
20 80 10
20 80 10
20 80 10
20 80 10
20 80 10
20 80 10
20 80 10
20 80 10
20 80 10
20 80 10
20 80 10
20 80 10
20 80 10
20 80 10
20 80 10
20 80 10
20 80 10
20 80 10
20 80 10
20 80 10
20 80 10
20 80 10
20 80 10
20 80 10
20 80 10
20 80 10
20 80 10
20 80 10
20 80 10
20 80 10
20 80 10
20 80 10
20 80 10
20 80 10
20 80 10
20 80 10
20 80 10
20 80 10
20 80 10
20 80 10
20 80 10
20 80 10
20 80 10
20 80 10
20 80 10
20 80 10
20 80 10
20 80 10
20 80 10
20 80 10
20 80 10
20 80 10
20 80 10
20 80 10
20 80 10
20 80 10
20 80 10
20 80 10
20 80 10
20 80 10
20 80 10
20 80 10
20 80 10
20 80 10
20 80 10
20 80 10
20 80 10
20 80 10
20 80 10
20 80 10
20 80 10
20 80 10
20 80 10
20 80 10
20 80 10
20 80 10
20 80 10
20 80 10
20 80 10
20 80 10
20 80 10
20 80 10
20 80 10
20 80 10
20 80 10
20 80 10
20 80 10
20 80 10
20 80 10
20 80 10
20 80 10
20 80 10
20 80 10
20 80 10
20 80 10
20 80 10
20 80 10
20 80 10
20 80 10
20 80 10
20 80 10
20 80 10
20 80 10
20 80 10
20 80 10
20 80 10
20 80 10
20 80 10
20 80 10
20 80 10
20 80 10
20 80 10
20 80 10
20 80 10
20 80 10
20 80 10
20 80 10
20 80 10
20 80 10
20 80 10
20 80 10
20 80 10
20 80 10
20 80 10
20 80 10
20 80 10
20 80 10
20 80 10
20 80 10
20 80 10
20 80 10
20 80 10
20 80 10
20 80 10
20 80 10
20 80 10
20 80 10
20 80 10
20 80 10
20 80 10
20 80 10
20 80 10
20 80 10
20 80 10
20 80 10
20 80 10
20 80 10
20 80 10
20 80 10
20 80 10
20 80 10
20 80 10
20 80 10
20 80 10
20 80 10
20 80 10
20 80 10
20 80 10
20 80 10
20 80 10
20 80 10
20 80 10
20 80 10
20 80 10
20 80 10
20 80 10
20 80 10
20 80 10
20 80 10
20 80 10
20 80 10
20 80 10
20 80 10
20 80 10
20 80 10
20 80 10
20 80 10
20 80 10
20 80 10
20 80 10
20 80 10
20 80 10
20 80 10
20 80 10
20 80 10
20 80 10
20 80 10
20 80 10
20 80 10
20 80 10
20 80 10
20 80 10
20 80 10
20 80 10
20 80 10
20 80 10
20 80 10
20 80 10
20 80 10
20 80 10
20 80 10
20 80 10
20 80 10
20 80 10
20 80 10
20 80 10
20 80 10
20 80 10
20 80 10
20 80 10
20 80 10
20 80 10
20 80 10
20 80 10
20 80 10
20 80 10
20 80 10
20 80 10
20 80 10
20 80 10
20 80 10
20 80 10
20 80 10
20 80 10
20 80 10
20 80 10
20 80 10
20 80 10
20 80 10
20 80 10
20 80 10
20 80 10
20 80 10
20 80 10
20 80 10
20 80 10
20 80 10
20 80 10
20 80 10
20 80 10
20 80 10
20 80 10
20 80 10
20 80 10
20 80 10
20 80 10
20 80 10
20 80 10
20 80 10
20 80 10
20 80 10
20 80 10
20 80 10
20 80 10
20 80 10
20 80 10
20 80 10
20 80 10
20 80 10
20 80 10
20 80 10
20 80 10
20 80 10
20 80 10
20 80 10
20 80 10
20 80 10
20 80 10
20 80 10
20 80 10
20 80 10
20 80 10
20 80 10
20 80 10
20 80 10
20 80 10
20 80 10
20 80 10
20 80 10
20 80 10
20 80 10
20 80 10
20 80 10
20 80 10
20 80 10
20 80 10
20 80 10
20 80 10
20 80 10
20 80 10
20 80 10
20 80 10
20 80 10
20 80 10
20 80 10
20 80 10
20 80 10
20 80 10
20 80 10
20 80 10
20 80 10
20 80 10
20 80 10
20 80 10
20 80 10
20 80 10
20 80 10
20 80 10
20 80 10
20 80 10
20 80 10
20 80 10
20 80 10
20 80 10
20 80 10
20 80 10
20 80 10
20 80 10
20 80 10
20 80 10
20 80 10
20 80 10
20 80 10
20 80 10
20 80 10
20 80 10
20 80 10
20 80 10
20 80 10
20 80 10
20 80 10
20 80 10
20 80 10
20 80 10
20 80 10
20 80 10
20 80 10
20 80 10
20 80 10
20 80 10
20 80 10
20 80 10
20 80 10
20 80 10
20 80 10
20 80 10
20 80 10
20 80 10
20 80 10
20 80 10
20 80 10
20 80 10
20 80 10
20 80 10
20 80 10
20 80 10
20 80 10
20 80 10
20 80 10
20 80 10
20 80 10
20 80 10
20 80 10
20 80 10
20 80 10
20 80 10
20 80 10
20 80 10
20 80 10
20 80 10
20 80 10
20 80 10
20 80 10
20 80 10
20 80 10
20 80 10
20 80 10
20 80 10
20 80 10
20 80 10
20 80 10
20 80 10
20 80 10
20 80 10
20 80 10
20 80 10
20 80 10
20 80 10
20 80 10
20 80 10
20 80 10
20 80 10
20 80 10
20 80 10
20 80 10
20 80 10
20 80 10
20 80 10
20 80 10
20 80 10
20 80 10
20 80 10
20 80 10
20 80 10
20 80 10
20 80 10
20 80 10
20 80 10
20 80 10
20 80 10
20 80 10
20 80 10
20 80 10
20 80 10
20 80 10
20 80 10
20 80 10
20 80 10
20 80 10
20 80 10
20 80 10
20 80 10
20 80 10
20 80 10
20 80 10
20 80 10
20 80 10
20 80 10
20 80 10
20 80 10
20 80 10
20 80 10
20 80 10
20 80 10
20 80 10
20 80 10
20 80 10
20 80 10
20 80 10
20 80 10
20 80 10
20 80 10
20 80 10
20 80 10
20 80 10
20 80 10
20 80 10
20 80 10
20 80 10
20 80 10
20 80 10
20 80 10
20 80 10
20 80 10
20 80 10
20 80 10
20 80 10
20 80 10
20 80 10
20 80 10
20 80 10
20 80 10
20 80 10
20 80 10
20 80 10
20 80 10
20 80 10
20 80 10
20 80 10
20 80 10
20 80 10
20 80 10
20 80 10
20 80 10
20 80 10
20 80 10
20 80 10
20 80 10
20 80 10
20 80 10
20 80 10
20 80 10
20 80 10
20 80 10
20 80 10
20 80 10
20 80 10
20 80 10
20 80 10
20 80 10
20 80 10
20 80 10
20 80 10
20 80 10
20 80 10
20 80 10
20 80 10
20 80 10
20 80 10
20 80 10
20 80 10
20 80 10
20 80 10
20 80 10
20 80 10
20 80 10
20 80 10
20 80 10
20 80 10
20 80 10
20 80 10
20 80 10
20 80 10
20 80 10
20 80 10
20 80 10
20 80 10
20 80 10
20 80 10
20 80 10
20 80 10
20 80 10
20 80 10
20 80 10
20 80 10
20 80 10
20 80 10
20 80 10
20 80 10
20 80 10
20 80 10
20 80 10
20 80 10
20 80 10
20 80 10
20 80 10
20 80 10
20 80 10
20 80 10
20 80 10
20 80 10
20 80 10
20 80 10
20 80 10
20 80 10
20 80 10
20 80 10
20 80 10
20 80 10
20 80 10
20 80 10
20 80 10
20 80 10
20 80 10
20 80 10
20 80 10
20 80 10
20 80 10
20 80 10
20 80 10
20 80 10
20 80 10
20 80 10
20 80 10
20 80 10
20 80 10
20 80 10
20 80 10
20 80 10
20 80 10
20 80 10
20 80 10
20 80 10
20 80 10
20 80 10
20 80 10
20 80 10
20 80 10
20 80 10
20 80 10
20 80 10
20 80 10
20 80 10
20 80 10
20 80 10
20 80 10
20 80 10
20 80 10
20 80 10
20 80 10
20 80 10
20 80 10
20 80 10
20 80 10
20 80 10
20 80 10
20 80 10
20 80 10
20 80 10
20 80 10
20 80 10
20 80 10
20 80 10
20 80 10
20 80 10
20 80 10
20 80 10
20 80 10
20 80 10
20 80 10
20 80 10
20 80 10
20 80 10
20 80 10
20 80 10
20 80 10
20 80 10
20 80 10
20 80 10
20 80 10
20 80 10
20 80 10
20 80 10
20 80 10
20 80 10
20 80 10
20 80 10
20 80 10
20 80 10
20 80 10
20 80 10
20 80 10
20 80 10
20 80 10
20 80 10
20 80 10
20 80 10
20 80 10
20 80 10
20 80 10
20 80 10
20 80 10
20 80 10
20 80 10
20 80 10
20 80 10
20 80 10
20 80 10
20 80 10
20 80 10
20 80 10
20 80 10
20 80 10
20 80 10
20 80 10
20 80 10
20 80 10
20 80 10
20 80 10
20 80 10
20 80 10
20 80 10
20 80 10
20 80 10
20 80 10
20 80 10
20 80 10
20 80 10
20 80 10
20 80 10
20 80 10
20 80 10
20 80 10
20 80 10
20 80 10
20 80 10
20 80 10
20 80 10
20 80 10
20 80 10
20 80 10
20 80 10
20 80 10
20 80 10
20 80 10
20 80 10
20 80 10
20 80 10
20 80 10
20 80 10
20 80 10
20 80 10
20 80 10
20 80 10
20 80 10
20 80 10
20 80 10
20 80 10
20 80 10
20 80 10
20 80 10
20 80 10
20 80 10
20 80 10
20 80 10
20 80 10
20 80 10
20 80 10
20 80 10
20 80 10
20 80 10
20 80 10
20 80 10
20 80 10
20 80 10
20 80 10
20 80 10
20 80 10
20 80 10
20 80 10
20 80 10
20 80 10
20 80 10
20 80 10
20 80 10
20 80 10
20 80 10
20 80 10
20 80 10
20 80 10
20 80 10
20 80 10
20 80 10
20 80 10
20 80 10
20 80 10
20 80 10
20 80 10
20 80 10
20 80 10
20 80 10
20 80 10
20 80 10
20 80 10
20 80 10
20 80 10
20 80 10
20 80 10
20 80 10
20 80 10
20 80 10
20 80 10
20 80 10
20 80 10
20 80 10
20 80 10
20 80 10
20 80 10
20 80 10
20 80 10
20 80 10
20 80 10
20 80 10
20 80 10
20 80 10
20 80 10
20 80 10
20 80 10
20 80 10
20 80 10
20 80 10
20 80 10
20 80 10
20 80 10
20 80 10
20 80 10
20 80 10
20 80 10
20 80 10
20 80 10
20 80 10
20 80 10
20 80 10
20 80 10
20 80 10
20 80 10
20 80 10
20 80 10
20 80 10
20 80 10
20 80 10
20 80 10
20 80 10
20 80 10
20 80 10
20 80 10
20 80 10
20 80 10
20 80 10
20 80 10
20 80 10
20 80 10
20 80 10
20 80 10
20 80 10
20 80 10
20 80 10
20 80 10
20 80 10
20 80 10
20 80 10
20 80 10
20 80 10
20 80 10
20 80 10
20 80 10
20 80 10
20 80 10
20 80 10
20 80 10
20 80 10
20 80 10
20 80 10
20 80 10
20 80 10
20 80 10
20 80 10
20 80 10
20 80 10
20 80 10
20 80 10
20 80 10
20 80 10
20 80 10
20 80 10
20 80 10
20 80 10
20 80 10
20 80 10
20 80 10
20 80 10
20 80 10
20 80 10
250 250 10
250 250 10
250 250 10
250 250 10
250 250 10
250 250 10
250 250 10
250 250 10
250 250 10
250 250 10
250 250 10
250 250 10
250 250 10
250 250 10
250 250 10
250 250 10
250 250 10
250 250 10
250 250 10
250 250 10
250 250 10
250 250 10
250 250 10
250 250 10
250 250 10
250 250 10
250 250 10
250 250 10
250 250 10
250 250 10
250 250 10
250 250 10
250 250 10
250 250 10
250 250 10
250 250 10
250 250 10
250 250 10
250 250 10
250 250 10
250 250 10
250 250 10
250 250 10
250 250 10
250 250 10
250 250 10
250 250 10
250 250 10
250 250 10
250 250 10
250 250 10
250 250 10
250 250 10
250 250 10
250 250 10
250 250 10
250 250 10
250 250 10
250 250 10
250 250 10
250 250 10
250 250 10
250 250 10
250 250 10
250 250 10
250 250 10
250 250 10
250 250 10
250 250 10
250 250 10
250 250 10
250 250 10
250 250 10
250 250 10
250 250 10
250 250 10
250 250 10
250 250 10
250 250 10
250 250 10
250 250 10
250 250 10
250 250 10
250 250 10
250 250 10
250 250 10
250 250 10
250 250 10
250 250 10
250 250 10
250 250 10
250 250 10
250 250 10
250 250 10
250 250 10
250 250 10
250 250 10
250 250 10
250 250 10
250 250 10
250 250 10
250 250 10
250 250 10
250 250 10
250 250 10
250 250 10
250 250 10
250 250 10
250 250 10
250 250 10
250 250 10
250 250 10
250 250 10
250 250 10
250 250 10
250 250 10
250 250 10
250 250 10
250 250 10
250 250 10
250 250 10
250 250 10
250 250 10
250 250 10
250 250 10
250 250 10
250 250 10
250 250 10
250 250 10
250 250 10
250 250 10
250 250 10
250 250 10
250 250 10
250 250 10
250 250 10
250 250 10
250 250 10
250 250 10
250 250 10
250 250 10
250 250 10
250 250 10
250 250 10
250 250 10
250 250 10
250 250 10
250 250 10
250 250 10
250 250 10
250 250 10
250 250 10
250 250 10
250 250 10
250 250 10
250 250 10
250 250 10
250 250 10
250 250 10
250 250 10
250 250 10
250 250 10
250 250 10
250 250 10
250 250 10
250 250 10
250 250 10
250 250 10
250 250 10
250 250 10
250 250 10
250 250 10
250 250 10
250 250 10
250 250 10
250 250 10
250 250 10
250 250 10
250 250 10
250 250 10
250 250 10
250 250 10
250 250 10
250 250 10
250 250 10
250 250 10
250 250 10
250 250 10
250 250 10
250 250 10
250 250 10
250 250 10
250 250 10
250 250 10
250 250 10
250 250 10
250 250 10
250 250 10
250 250 10
250 250 10
250 250 10
250 250 10
250 250 10
250 250 10
250 250 10
250 250 10
250 250 10
250 250 10
250 250 10
250 250 10
250 250 10
250 250 10
250 250 10
250 250 10
250 250 10
250 250 10
250 250 10
250 250 10
250 250 10
250 250 10
250 250 10
250 250 10
250 250 10
250 250 10
250 250 10
250 250 10
250 250 10
250 250 10
250 250 10
250 250 10
250 250 10
250 250 10
250 250 10
250 250 10
250 250 10
250 250 10
250 250 10
250 250 10
250 250 10
250 250 10
250 250 10
250 250 10
250 250 10
250 250 10
250 250 10
250 250 10
250 250 10
250 250 10
250 250 10
250 250 10
250 250 10
250 250 10
250 250 10
250 250 10
250 250 10
250 250 10
250 250 10
250 250 10
250 250 10
250 250 10
250 250 10
250 250 10
250 250 10
250 250 10
250 250 10
250 250 10
250 250 10
250 250 10
250 250 10
250 250 10
250 250 10
250 250 10
250 250 10
250 250 10
250 250 10
250 250 10
250 250 10
250 250 10
250 250 10
250 250 10
250 250 10
250 250 10
250 250 10
250 250 10
250 250 10
250 250 10
250 250 10
250 250 10
250 250 10
250 250 10
250 250 10
250 250 10
250 250 10
250 250 10
250 250 10
250 250 10
250 250 10
250 250 10
250 250 10
250 250 10
250 250 10
250 250 10
250 250 10
250 250 10
250 250 10
250 250 10
250 250 10
250 250 10
250 250 10
250 250 10
250 250 10
250 250 10
250 250 10
250 250 10
250 250 10
250 250 10
250 250 10
250 250 10
250 250 10
250 250 10
250 250 10
250 250 10
250 250 10
250 250 10
250 250 10
250 250 10
250 250 10
250 250 10
250 250 10
250 250 10
250 250 10
250 250 10
250 250 10
250 250 10
250 250 10
250 250 10
250 250 10
250 250 10
250 250 10
250 250 10
250 250 10
250 250 10
250 250 10
250 250 10
250 250 10
250 250 10
250 250 10
250 250 10
250 250 10
250 250 10
250 250 10
250 250 10
250 250 10
250 250 10
250 250 10
250 250 10
250 250 10
250 250 10
250 250 10
250 250 10
250 250 10
250 250 10
250 250 10
250 250 10
250 250 10
250 250 10
250 250 10
250 250 10
250 250 10
250 250 10
250 250 10
250 250 10
250 250 10
250 250 10
250 250 10
250 250 10
250 250 10
250 250 10
250 250 10
250 250 10
250 250 10
250 250 10
250 250 10
250 250 10
250 250 10
250 250 10
250 250 10
250 250 10
250 250 10
250 250 10
250 250 10
250 250 10
250 250 10
250 250 10
250 250 10
250 250 10
250 250 10
250 250 10
250 250 10
250 250 10
250 250 10
250 250 10
250 250 10
250 250 10
250 250 10
250 250 10
250 250 10
250 250 10
250 250 10
250 250 10
250 250 10
250 250 10
250 250 10
250 250 10
250 250 10
250 250 10
250 250 10
250 250 10
250 250 10
250 250 10
250 250 10
250 250 10
250 250 10
250 250 10
250 250 10
250 250 10
250 250 10
250 250 10
250 250 10
250 250 10
250 250 10
250 250 10
250 250 10
250 250 10
250 250 10
250 250 10
250 250 10
250 250 10
250 250 10
250 250 10
250 250 10
250 250 10
250 250 10
250 250 10
250 250 10
250 250 10
250 250 10
250 250 10
250 250 10
250 250 10
250 250 10
250 250 10
250 250 10
250 250 10
250 250 10
250 250 10
250 250 10
250 250 10
250 250 10
250 250 10
250 250 10
250 250 10
250 250 10
250 250 10
250 250 10
250 250 10
250 250 10
250 250 10
250 250 10
250 250 10
250 250 10
250 250 10
250 250 10
250 250 10
250 250 10
250 250 10
250 250 10
250 250 10
250 250 10
250 250 10
250 250 10
250 250 10
250 250 10
250 250 10
250 250 10
250 250 10
250 250 10
250 250 10
250 250 10
250 250 10
250 250 10
250 250 10
250 250 10
250 250 10
250 250 10
250 250 10
250 250 10
250 250 10
250 250 10
250 250 10
250 250 10
250 250 10
250 250 10
250 250 10
250 250 10
250 250 10
250 250 10
250 250 10
250 250 10
250 250 10
250 250 10
250 250 10
250 250 10
250 250 10
250 250 10
250 250 10
250 250 10
250 250 10
250 250 10
250 250 10
250 250 10
250 250 10
250 250 10
250 250 10
250 250 10
250 250 10
250 250 10
250 250 10
250 250 10
250 250 10
250 250 10
250 250 10
250 250 10
250 250 10
250 250 10
250 250 10
250 250 10
250 250 10
250 250 10
250 250 10
250 250 10
250 250 10
250 250 10
250 250 10
250 250 10
250 250 10
250 250 10
250 250 10
250 250 10
250 250 10
250 250 10
250 250 10
250 250 10
250 250 10
250 250 10
250 250 10
250 250 10
250 250 10
250 250 10
250 250 10
250 250 10
250 250 10
250 250 10
250 250 10
250 250 10
250 250 10
250 250 10
250 250 10
250 250 10
250 250 10
250 250 10
250 250 10
250 250 10
250 250 10
250 250 10
250 250 10
250 250 10
250 250 10
250 250 10
250 250 10
250 250 10
250 250 10
250 250 10
250 250 10
250 250 10
250 250 10
250 250 10
250 250 10
250 250 10
250 250 10
250 250 10
250 250 10
250 250 10
250 250 10
250 250 10
250 250 10
250 250 10
250 250 10
250 250 10
250 250 10
250 250 10
250 250 10
250 250 10
250 250 10
250 250 10
250 250 10
250 250 10
250 250 10
250 250 10
250 250 10
250 250 10
250 250 10
250 250 10
250 250 10
250 250 10
250 250 10
250 250 10
250 250 10
250 250 10
250 250 10
250 250 10
250 250 10
250 250 10
250 250 10
250 250 10
250 250 10
250 250 10
250 250 10
250 250 10
250 250 10
250 250 10
250 250 10
250 250 10
250 250 10
250 250 10
250 250 10
250 250 10
250 250 10
250 250 10
250 250 10
250 250 10
250 250 10
250 250 10
250 250 10
250 250 10
250 250 10
250 250 10
250 250 10
250 250 10
250 250 10
250 250 10
250 250 10
250 250 10
250 250 10
250 250 10
250 250 10
250 250 10
250 250 10
250 250 10
250 250 10
250 250 10
250 250 10
250 250 10
250 250 10
250 250 10
250 250 10
250 250 10
250 250 10
250 250 10
250 250 10
250 250 10
250 250 10
250 250 10
250 250 10
250 250 10
250 250 10
250 250 10
250 250 10
250 250 10
250 250 10
250 250 10
250 250 10
250 250 10
250 250 10
250 250 10
250 250 10
250 250 10
250 250 10
250 250 10
250 250 10
250 250 10
250 250 10
250 250 10
250 250 10
250 250 10
250 250 10
250 250 10
250 250 10
250 250 10
250 250 10
250 250 10
250 250 10
250 250 10
250 250 10
250 250 10
250 250 10
250 250 10
250 250 10
250 250 10
250 250 10
250 250 10
250 250 10
250 250 10
250 250 10
250 250 10
250 250 10
250 250 10
250 250 10
250 250 10
250 250 10
250 250 10
250 250 10
250 250 10
250 250 10
250 250 10
250 250 10
250 250 10
250 250 10
250 250 10
250 250 10
250 250 10
250 250 10
250 250 10
250 250 10
250 250 10
250 250 10
250 250 10
250 250 10
250 250 10
250 250 10
250 250 10
250 250 10
250 250 10
250 250 10
250 250 10
250 250 10
250 250 10
250 250 10
250 250 10
250 250 10
250 250 10
250 250 10
250 250 10
250 250 10
250 250 10
250 250 10
250 250 10
250 250 10
250 250 10
250 250 10
250 250 10
250 250 10
250 250 10
250 250 10
250 250 10
250 250 10
250 250 10
250 250 10
250 250 10
250 250 10
250 250 10
250 250 10
250 250 10
250 250 10
250 250 10
250 250 10
250 250 10
250 250 10
250 250 10
250 250 10
250 250 10
250 250 10
250 250 10
250 250 10
250 250 10
250 250 10
250 250 10
250 250 10
250 250 10
250 250 10
250 250 10
250 250 10
250 250 10
250 250 10
250 250 10
250 250 10
250 250 10
250 250 10
250 250 10
250 250 10
250 250 10
250 250 10
250 250 10
250 250 10
250 250 10
250 250 10
250 250 10
250 250 10
250 250 10
250 250 10
250 250 10
250 250 10
250 250 10
250 250 10
250 250 10
250 250 10
250 250 10
250 250 10
250 250 10
250 250 10
250 250 10
250 250 10
250 250 10
250 250 10
250 250 10
250 250 10
250 250 10
250 250 10
250 250 10
250 250 10
250 250 10
250 250 10
250 250 10
250 250 10
250 250 10
250 250 10
250 250 10
250 250 10
250 250 10
250 250 10
250 250 10
250 250 10
250 250 10
250 250 10
250 250 10
250 250 10
250 250 10
250 250 10
250 250 10
250 250 10
250 250 10
250 250 10
250 250 10
250 250 10
250 250 10
250 250 10
250 250 10
250 250 10
250 250 10
250 250 10
250 250 10
250 250 10
250 250 10
250 250 10
250 250 10
250 250 10
250 250 10
250 250 10
250 250 10
250 250 10
250 250 10
250 250 10
250 250 10
250 250 10
250 250 10
250 250 10
250 250 10
250 250 10
250 250 10
250 250 10
250 250 10
250 250 10
250 250 10
250 250 10
250 250 10
250 250 10
250 250 10
250 250 10
250 250 10
250 250 10
250 250 10
250 250 10
250 250 10
250 250 10
250 250 10
250 250 10
250 250 10
250 250 10
250 250 10
250 250 10
250 250 10
250 250 10
250 250 10
250 250 10
250 250 10
250 250 10
250 250 10
250 250 10
250 250 10
250 250 10
250 250 10
250 250 10
250 250 10
250 250 10
250 250 10
250 250 10
250 250 10
250 250 10
250 250 10
250 250 10
250 250 10
250 250 10
250 250 10
250 250 10
250 250 10
250 250 10
250 250 10
250 250 10
250 250 10
250 250 10
250 250 10
250 250 10
250 250 10
250 250 10
250 250 10
250 250 10
250 250 10
250 250 10
250 250 10
250 250 10
250 250 10
250 250 10
250 250 10
250 250 10
250 250 10
250 250 10
250 250 10
250 250 10
250 250 10
250 250 10
250 250 10
250 250 10
250 250 10
250 250 10
250 250 10
250 250 10
250 250 10
250 250 10
250 250 10
250 250 10
250 250 10
250 250 10
250 250 10
250 250 10
250 250 10
250 250 10
250 250 10
250 250 10
250 250 10
250 250 10
250 250 10
250 250 10
250 250 10
250 250 10
250 250 10
250 250 10
250 250 10
250 250 10
250 250 10
250 250 10
250 250 10
250 250 10
250 250 10
250 250 10
250 250 10
250 250 10
250 250 10
250 250 10
250 250 10
250 250 10
250 250 10
250 250 10
250 250 10
250 250 10
250 250 10
250 250 10
250 250 10
250 250 10
250 250 10
250 250 10
250 250 10
250 250 10
250 250 10
250 250 10
250 250 10
250 250 10
250 250 10
250 250 10
250 250 10
250 250 10
250 250 10
250 250 10
250 250 10
250 250 10
250 250 10
250 250 10
250 250 10
250 250 10
250 250 10
250 250 10
250 250 10
250 250 10
250 250 10
250 250 10
250 250 10
250 250 10
250 250 10
250 250 10
250 250 10
250 250 10
250 250 10
250 250 10
250 250 10
250 250 10
250 250 10
250 250 10
250 250 10
250 250 10
250 250 10
250 250 10
250 250 10
250 250 10
250 250 10
250 250 10
250 250 10
250 250 10
250 250 10
250 250 10
250 250 10
250 250 10
250 250 10
250 250 10
250 250 10
250 250 10
250 250 10
250 250 10
250 250 10
250 250 10
250 250 10
250 250 10
250 250 10
250 250 10
250 250 10
250 250 10
250 250 10
250 250 10
250 250 10
250 250 10
250 250 10
250 250 10
250 250 10
250 250 10
250 250 10
250 250 10
250 250 10
250 250 10
250 250 10
250 250 10
250 250 10
250 250 10
250 250 10
250 250 10
250 250 10
250 250 10
250 250 10
250 250 10
250 250 10
250 250 10
250 250 10
250 250 10
250 250 10
250 250 10
250 250 10
250 250 10
250 250 10
250 250 10
250 250 10
250 250 10
250 250 10
250 250 10
250 250 10
250 250 10
250 250 10
250 250 10
250 250 10
250 250 10
250 250 10
250 250 10
250 250 10
250 250 10
250 250 10
250 250 10
250 250 10
250 250 10
250 250 10
250 250 10
250 250 10
250 250 10
250 250 10
250 250 10
250 250 10
250 250 10
250 250 10
250 250 10
250 250 10
250 250 10
250 250 10
250 250 10
250 250 10
250 250 10
250 250 10
250 250 10
250 250 10
250 250 10
250 250 10
250 250 10
250 250 10
250 250 10
250 250 10
250 250 10
250 250 10
250 250 10
250 250 10
250 250 10
250 250 10
250 250 10
250 250 10
250 250 10
250 250 10
250 250 10
250 250 10
250 250 10
250 250 10
250 250 10
250 250 10
250 250 10
250 250 10
250 250 10
250 250 10
250 250 10
250 250 10
250 250 10
250 250 10
250 250 10
250 250 10
250 250 10
250 250 10
250 250 10
250 250 10
250 250 10
250 250 10
250 250 10
250 250 10
250 250 10
250 250 10
250 250 10
250 250 10
250 250 10
250 250 10
250 250 10
250 250 10
250 250 10
250 250 10
250 250 10
250 250 10
250 250 10
250 250 10
250 250 10
250 250 10
250 250 10
250 250 10
250 250 10
250 250 10
250 250 10
250 250 10
250 250 10
250 250 10
250 250 10
250 250 10
250 250 10
250 250 10
250 250 10
250 250 10
250 250 10
250 250 10
250 250 10
250 250 10
250 250 10
250 250 10
250 250 10
250 250 10
250 250 10
250 250 10
250 250 10
250 250 10
250 250 10
250 250 10
250 250 10
250 250 10
250 250 10
250 250 10
250 250 10
250 250 10
250 250 10
250 250 10
250 250 10
250 250 10
250 250 10
250 250 10
250 250 10
250 250 10
250 250 10
250 250 10
250 250 10
250 250 10
250 250 10
250 250 10
250 250 10
250 250 10
250 250 10
250 250 10
250 250 10
250 250 10
250 250 10
250 250 10
250 250 10
250 250 10
250 250 10
250 250 10
250 250 10
250 250 10
250 250 10
250 250 10
250 250 10
250 250 10
250 250 10
250 250 10
250 250 10
250 250 10
250 250 10
250 250 10
250 250 10
250 250 10
250 250 10
250 250 10
250 250 10
250 250 10
250 250 10
250 250 10
250 250 10
250 250 10
250 250 10
250 250 10
250 250 10
250 250 10
250 250 10
250 250 10
250 250 10
250 250 10
250 250 10
250 250 10
250 250 10
250 250 10
250 250 10
250 250 10
250 250 10
250 250 10
250 250 10
250 250 10
250 250 10
250 250 10
250 250 10
250 250 10
250 250 10
250 250 10
250 250 10
250 250 10
250 250 10
250 250 10
250 250 10
250 250 10
250 250 10
250 250 10
250 250 10
250 250 10
250 250 10
250 250 10
250 250 10
250 250 10
250 250 10
250 250 10
250 250 10
250 250 10
250 250 10
250 250 10
250 250 10
250 250 10
250 250 10
250 250 10
250 250 10
250 250 10
250 250 10
250 250 10
250 250 10
250 250 10
250 250 10
250 250 10
250 250 10
250 250 10
250 250 10
250 250 10
250 250 10
250 250 10
250 250 10
250 250 10
250 250 10
250 250 10
250 250 10
250 250 10
250 250 10
250 250 10
250 250 10
250 250 10
250 250 10
250 250 10
250 250 10
250 250 10
250 250 10
250 250 10
250 250 10
250 250 10
250 250 10
250 250 10
250 250 10
250 250 10
250 250 10
250 250 10
250 250 10
250 250 10
250 250 10
250 250 10
250 250 10
250 250 10
250 250 10
250 250 10
250 250 10
250 250 10
250 250 10
250 250 10
250 250 10
250 250 10
250 250 10
250 250 10
250 250 10
250 250 10
250 250 10
250 250 10
250 250 10
250 250 10
250 250 10
250 250 10
250 250 10
250 250 10
250 250 10
250 250 10
250 250 10
250 250 10
250 250 10
250 250 10
250 250 10
250 250 10
250 250 10
250 250 10
250 250 10
250 250 10
250 250 10
250 250 10
250 250 10
250 250 10
250 250 10
250 250 10
250 250 10
250 250 10
250 250 10
250 250 10
250 250 10
250 250 10
250 250 10
250 250 10
250 250 10
250 250 10
250 250 10
250 250 10
250 250 10
250 250 10
250 250 10
250 250 10
250 250 10
250 250 10
250 250 10
250 250 10
250 250 10
250 250 10
250 250 10
250 250 10
250 250 10
250 250 10
250 250 10
250 250 10
250 250 10
250 250 10
250 250 10
250 250 10
250 250 10
250 250 10
250 250 10
250 250 10
250 250 10
250 250 10
250 250 10
250 250 10
250 250 10
250 250 10
250 250 10
250 250 10
250 250 10
250 250 10
250 250 10
250 250 10
250 250 10
250 250 10
250 250 10
250 250 10
250 250 10
250 250 10
250 250 10
250 250 10
250 250 10
250 250 10
250 250 10
250 250 10
250 250 10
250 250 10
250 250 10
250 250 10
250 250 10
250 250 10
250 250 10
250 250 10
250 250 10
250 250 10
250 250 10
250 250 10
250 250 10
250 250 10
250 250 10
250 250 10
250 250 10
250 250 10
250 250 10
250 250 10
250 250 10
250 250 10
250 250 10
250 250 10
250 250 10
250 250 10
250 250 10
250 250 10
250 250 10
250 250 10
250 250 10
250 250 10
250 250 10
250 250 10
250 250 10
250 250 10
250 250 10
250 250 10
250 250 10
250 250 10
250 250 10
250 250 10
250 250 10
250 250 10
250 250 10
250 250 10
250 250 10
250 250 10
250 250 10
250 250 10
250 250 10
250 250 10
250 250 10
250 250 10
250 250 10
250 250 10
250 250 10
250 250 10
250 250 10
250 250 10
250 250 10
250 250 10
250 250 10
250 250 10
250 250 10
250 250 10
250 250 10
250 250 10
250 250 10
250 250 10
250 250 10
250 250 10
250 250 10
250 250 10
250 250 10
250 250 10
250 250 10
250 250 10
250 250 10
250 250 10
250 250 10
250 250 10
250 250 10
250 250 10
250 250 10
250 250 10
250 250 10
250 250 10
250 250 10
250 250 10
250 250 10
250 250 10
250 250 10
250 250 10
250 250 10
250 250 10
250 250 10
250 250 10
250 250 10
250 250 10
250 250 10
250 250 10
250 250 10
250 250 10
250 250 10
250 250 10
250 250 10
250 250 10
250 250 10
250 250 10
250 250 10
250 250 10
250 250 10
250 250 10
250 250 10
250 250 10
250 250 10
250 250 10
250 250 10
250 250 10
250 250 10
250 250 10
250 250 10
250 250 10
250 250 10
250 250 10
250 250 10
250 250 10
250 250 10
250 250 10
250 250 10
250 250 10
250 250 10
250 250 10
250 250 10
250 250 10
250 250 10
250 250 10
250 250 10
250 250 10
250 250 10
250 250 10
250 250 10
250 250 10
250 250 10
250 250 10
250 250 10
250 250 10
250 250 10
250 250 10
250 250 10
250 250 10
250 250 10
250 250 10
250 250 10
250 250 10
250 250 10
250 250 10
250 250 10
250 250 10
250 250 10
250 250 10
250 250 10
250 250 10
250 250 10
250 250 10
250 250 10
250 250 10
250 250 10
250 250 10
250 250 10
250 250 10
250 250 10
250 250 10
250 250 10
250 250 10
250 250 10
250 250 10
250 250 10
250 250 10
250 250 10
250 250 10
250 250 10
250 250 10
250 250 10
250 250 10
250 250 10
250 250 10
250 250 10
250 250 10
250 250 10
250 250 10
250 250 10
250 250 10
250 250 10
250 250 10
250 250 10
250 250 10
250 250 10
250 250 10
250 250 10
250 250 10
250 250 10
250 250 10
250 250 10
250 250 10
250 250 10
250 250 10
250 250 10
250 250 10
250 250 10
250 250 10
250 250 10
250 250 10
250 250 10
250 250 10
250 250 10
250 250 10
250 250 10
250 250 10
250 250 10
250 250 10
250 250 10
250 250 10
250 250 10
250 250 10
250 250 10
250 250 10
250 250 10
250 250 10
250 250 10
250 250 10
250 250 10
250 250 10
250 250 10
250 250 10
250 250 10
250 250 10
250 250 10
250 250 10
250 250 10
250 250 10
250 250 10
250 250 10
250 250 10
250 250 10
250 250 10
250 250 10
250 250 10
250 250 10
250 250 10
250 250 10
250 250 10
250 250 10
250 250 10
250 250 10
250 250 10
250 250 10
250 250 10
250 250 10
250 250 10
250 250 10
250 250 10
250 250 10
250 250 10
250 250 10
250 250 10
250 250 10
250 250 10
250 250 10
250 250 10
250 250 10
250 250 10
250 250 10
250 250 10
250 250 10
250 250 10
250 250 10
250 250 10
250 250 10
250 250 10
250 250 10
250 250 10
250 250 10
250 250 10
250 250 10
250 250 10
250 250 10
250 250 10
250 250 10
250 250 10
250 250 10
250 250 10
250 250 10
250 250 10
250 250 10
250 250 10
250 250 10
250 250 10
250 250 10
250 250 10
250 250 10
250 250 10
250 250 10
250 250 10
250 250 10
250 250 10
250 250 10
250 250 10
250 250 10
250 250 10
250 250 10
250 250 10
250 250 10
250 250 10
250 250 10
250 250 10
250 250 10
250 250 10
250 250 10
250 250 10
250 250 10
250 250 10
250 250 10
250 250 10
250 250 10
250 250 10
250 250 10
250 250 10
250 250 10
250 250 10
250 250 10
250 250 10
250 250 10
250 250 10
250 250 10
250 250 10
250 250 10
250 250 10
250 250 10
250 250 10
250 250 10
250 250 10
250 250 10
250 250 10
250 250 10
250 250 10
250 250 10
250 250 10
250 250 10
250 250 10
250 250 10
250 250 10
250 250 10
250 250 10
250 250 10
250 250 10
250 250 10
250 250 10
250 250 10
250 250 10
250 250 10
250 250 10
250 250 10
250 250 10
250 250 10
250 250 10
250 250 10
250 250 10
250 250 10
250 250 10
250 250 10
250 250 10
250 250 10
250 250 10
250 250 10
250 250 10
250 250 10
250 250 10
250 250 10
250 250 10
250 250 10
250 250 10
250 250 10
250 250 10
250 250 10
250 250 10
250 250 10
250 250 10
250 250 10
250 250 10
250 250 10
250 250 10
250 250 10
250 250 10
250 250 10
250 250 10
250 250 10
250 250 10
250 250 10
250 250 10
250 250 10
250 250 10
250 250 10
250 250 10
250 250 10
250 250 10
250 250 10
250 250 10
250 250 10
250 250 10
250 250 10
250 250 10
250 250 10
250 250 10
250 250 10
250 250 10
250 250 10
250 250 10
250 250 10
250 250 10
250 250 10
250 250 10
250 250 10
250 250 10
250 250 10
250 250 10
250 250 10
250 250 10
250 250 10
250 250 10
250 250 10
250 250 10
250 250 10
250 250 10
250 250 10
250 250 10
250 250 10
250 250 10
250 250 10
250 250 10
250 250 10
250 250 10
250 250 10
250 250 10
250 250 10
250 250 10
250 250 10
250 250 10
250 250 10
250 250 10
250 250 10
250 250 10
250 250 10
250 250 10
250 250 10
250 250 10
250 250 10
250 250 10
250 250 10
250 250 10
250 250 10
250 250 10
250 250 10
250 250 10
250 250 10
250 250 10
250 250 10
250 250 10
250 250 10
250 250 10
250 250 10
250 250 10
250 250 10
250 250 10
250 250 10
250 250 10
250 250 10
250 250 10
250 250 10
250 250 10
250 250 10
250 250 10
250 250 10
250 250 10
250 250 10
250 250 10
250 250 10
250 250 10
250 250 10
250 250 10
250 250 10
250 250 10
250 250 10
250 250 10
250 250 10
250 250 10
250 250 10
250 250 10
250 250 10
250 250 10
250 250 10
250 250 10
250 250 10
250 250 10
250 250 10
250 250 10
250 250 10
250 250 10
250 250 10
250 250 10
250 250 10
250 250 10
250 250 10
250 250 10
250 250 10
250 250 10
250 250 10
250 250 10
250 250 10
250 250 10
250 250 10
250 250 10
250 250 10
250 250 10
250 250 10
250 250 10
250 250 10
250 250 10
250 250 10
250 250 10
250 250 10
250 250 10
250 250 10
250 250 10
250 250 10
250 250 10
250 250 10
250 250 10
250 250 10
250 250 10
250 250 10
250 250 10
250 250 10
250 250 10
250 250 10
250 250 10
250 250 10
250 250 10
250 250 10
250 250 10
250 250 10
250 250 10
250 250 10
250 250 10
250 250 10
250 250 10
250 250 10
250 250 10
250 250 10
250 250 10
250 250 10
250 250 10
250 250 10
250 250 10
250 250 10
250 250 10
250 250 10
250 250 10
250 250 10
250 250 10
250 250 10
250 250 10
250 250 10
250 250 10
250 250 10
250 250 10
250 250 10
250 250 10
250 250 10
250 250 10
250 250 10
250 250 10
250 250 10
250 250 10
250 250 10
250 250 10
250 250 10
250 250 10
250 250 10
250 250 10
250 250 10
250 250 10
250 250 10
250 250 10
250 250 10
250 250 10
250 250 10
250 250 10
250 250 10
250 250 10
250 250 10
250 250 10
250 250 10
250 250 10
250 250 10
250 250 10
250 250 10
250 250 10
250 250 10
250 250 10
250 250 10
250 250 10
250 250 10
250 250 10
250 250 10
250 250 10
250 250 10
250 250 10
250 250 10
250 250 10
250 250 10
250 250 10
250 250 10
250 250 10
250 250 10
250 250 10
250 250 10
250 250 10
250 250 10
250 250 10
250 250 10
250 250 10
250 250 10
250 250 10
250 250 10
250 250 10
250 250 10
250 250 10
250 250 10
250 250 10
250 250 10
250 250 10
250 250 10
250 250 10
250 250 10
250 250 10
250 250 10
250 250 10
250 250 10
250 250 10
250 250 10
250 250 10
250 250 10
250 250 10
250 250 10
250 250 10
250 250 10
250 250 10
250 250 10
250 250 10
250 250 10
250 250 10
250 250 10
250 250 10
250 250 10
250 250 10
250 250 10
250 250 10
250 250 10
250 250 10
250 250 10
250 250 10
250 250 10
250 250 10
250 250 10
250 250 10
250 250 10
250 250 10
250 250 10
250 250 10
250 250 10
250 250 10
250 250 10
250 250 10
250 250 10
250 250 10
250 250 10
250 250 10
250 250 10
250 250 10
250 250 10
250 250 10
250 250 10
250 250 10
250 250 10
250 250 10
250 250 10
250 250 10
250 250 10
250 250 10
250 250 10
250 250 10
250 250 10
250 250 10
250 250 10
250 250 10
250 250 10
250 250 10
250 250 10
250 250 10
250 250 10
250 250 10
250 250 10
250 250 10
250 250 10
250 250 10
250 250 10
250 250 10
250 250 10
250 250 10
250 250 10
250 250 10
250 250 10
250 250 10
250 250 10
250 250 10
250 250 10
250 250 10
250 250 10
250 250 10
250 250 10
250 250 10
250 250 10
250 250 10
250 250 10
250 250 10
250 250 10
250 250 10
250 250 10
250 250 10
250 250 10
250 250 10
250 250 10
250 250 10
250 250 10
250 250 10
250 250 10
250 250 10
250 250 10
250 250 10
250 250 10
250 250 10
250 250 10
250 250 10
250 250 10
250 250 10
250 250 10
250 250 10
250 250 10
250 250 10
250 250 10
250 250 10
250 250 10
250 250 10
250 250 10
250 250 10
250 250 10
250 250 10
250 250 10
250 250 10
250 250 10
250 250 10
250 250 10
250 250 10
250 250 10
250 250 10
250 250 10
250 250 10
250 250 10
250 250 10
250 250 10
250 250 10
250 250 10
250 250 10
250 250 10
250 250 10
250 250 10
250 250 10
250 250 10
250 250 10
250 250 10
250 250 10
250 250 10
250 250 10
250 250 10
250 250 10
250 250 10
250 250 10
250 250 10
250 250 10
250 250 10
250 250 10
250 250 10
250 250 10
250 250 10
250 250 10
250 250 10
250 250 10
250 250 10
250 250 10
250 250 10
250 250 10
250 250 10
250 250 10
250 250 10
250 250 10
250 250 10
250 250 10
250 250 10
250 250 10
250 250 10
250 250 10
250 250 10
250 250 10
250 250 10
250 250 10
250 250 10
250 250 10
250 250 10
250 250 10
250 250 10
250 250 10
250 250 10
250 250 10
250 250 10
250 250 10
250 250 10
250 250 10
250 250 10
250 250 10
250 250 10
250 250 10
250 250 10
250 250 10
250 250 10
250 250 10
250 250 10
250 250 10
250 250 10
250 250 10
250 250 10
250 250 10
250 250 10
250 250 10
250 250 10
250 250 10
250 250 10
250 250 10
250 250 10
250 250 10
250 250 10
250 250 10
250 250 10
250 250 10
250 250 10
250 250 10
250 250 10
250 250 10
250 250 10
250 250 10
250 250 10
250 250 10
250 250 10
250 250 10
250 250 10
250 250 10
250 250 10
250 250 10
250 250 10
250 250 10
250 250 10
250 250 10
250 250 10
250 250 10
250 250 10
250 250 10
250 250 10
250 250 10
250 250 10
250 250 10
250 250 10
250 250 10
250 250 10
250 250 10
250 250 10
250 250 10
250 250 10
250 250 10
250 250 10
250 250 10
250 250 10
250 250 10
250 250 10
250 250 10
250 250 10
250 250 10
250 250 10
250 250 10
250 250 10
250 250 10
250 250 10
250 250 10
250 250 10
250 250 10
250 250 10
250 250 10
250 250 10
250 250 10
250 250 10
250 250 10
250 250 10
250 250 10
250 250 10
250 250 10
250 250 10
250 250 10
250 250 10
250 250 10
250 250 10
250 250 10
250 250 10
250 250 10
250 250 10
250 250 10
250 250 10
250 250 10
250 250 10
250 250 10
250 250 10
250 250 10
250 250 10
250 250 10
250 250 10
250 250 10
250 250 10
250 250 10
250 250 10
250 250 10
250 250 10
250 250 10
250 250 10
250 250 10
250 250 10
250 250 10
250 250 10
250 250 10
250 250 10
250 250 10
250 250 10
250 250 10
250 250 10
250 250 10
250 250 10
250 250 10
250 250 10
250 250 10
250 250 10
250 250 10
250 250 10
250 250 10
250 250 10
250 250 10
250 250 10
250 250 10
250 250 10
250 250 10
250 250 10
250 250 10
250 250 10
250 250 10
250 250 10
250 250 10
250 250 10
250 250 10
250 250 10
250 250 10
250 250 10
250 250 10
250 250 10
250 250 10
250 250 10
250 250 10
250 250 10
250 250 10
250 250 10
250 250 10
250 250 10
250 250 10
250 250 10
250 250 10
250 250 10
250 250 10
250 250 10
250 250 10
250 250 10
250 250 10
250 250 10
250 250 10
250 250 10
250 250 10
250 250 10
250 250 10
250 250 10
250 250 10
250 250 10
250 250 10
250 250 10
250 250 10
250 250 10
250 250 10
250 250 10
250 250 10
250 250 10
250 250 10
250 250 10
250 250 10
250 250 10
250 250 10
250 250 10
250 250 10
250 250 10
250 250 10
250 250 10
250 250 10
250 250 10
250 250 10
250 250 10
250 250 10
250 250 10
250 250 10
250 250 10
250 250 10
250 250 10
250 250 10
250 250 10
250 250 10
250 250 10
250 250 10
250 250 10
250 250 10
250 250 10
250 250 10
250 250 10
250 250 10
250 250 10
250 250 10
250 250 10
250 250 10
250 250 10
250 250 10
250 250 10
250 250 10
250 250 10
250 250 10
250 250 10
250 250 10
250 250 10
250 250 10
250 250 10
250 250 10
250 250 10
250 250 10
250 250 10
250 250 10
250 250 10
250 250 10
250 250 10
250 250 10
250 250 10
250 250 10
250 250 10
250 250 10
250 250 10
250 250 10
250 250 10
250 250 10
250 250 10
250 250 10
250 250 10
250 250 10
250 250 10
250 250 10
250 250 10
250 250 10
250 250 10
250 250 10
250 250 10
250 250 10
250 250 10
250 250 10
250 250 10
250 250 10
250 250 10
250 250 10
250 250 10
250 250 10
250 250 10
250 250 10
250 250 10
250 250 10
250 250 10
250 250 10
250 250 10
250 250 10
250 250 10
250 250 10
250 250 10
250 250 10
250 250 10
250 250 10
250 250 10
250 250 10
250 250 10
250 250 10
250 250 10
250 250 10
250 250 10
250 250 10
250 250 10
250 250 10
250 250 10
250 250 10
250 250 10
250 250 10
250 250 10
250 250 10
250 250 10
250 250 10
250 250 10
250 250 10
250 250 10
250 250 10
250 250 10
250 250 10
250 250 10
250 250 10
250 250 10
250 250 10
250 250 10
250 250 10
250 250 10
250 250 10
250 250 10
250 250 10
250 250 10
250 250 10
250 250 10
250 250 10
250 250 10
250 250 10
250 250 10
250 250 10
250 250 10
250 250 10
250 250 10
250 250 10
250 250 10
250 250 10
250 250 10
250 250 10
250 250 10
250 250 10
250 250 10
250 250 10
250 250 10
250 250 10
250 250 10
250 250 10
250 250 10
250 250 10
250 250 10
250 250 10
250 250 10
250 250 10
250 250 10
250 250 10
250 250 10
250 250 10
250 250 10
250 250 10
250 250 10
250 250 10
250 250 10
250 250 10
250 250 10
250 250 10
250 250 10
250 250 10
250 250 10
250 250 10
250 250 10
250 250 10
250 250 10
250 250 10
250 250 10
250 250 10
250 250 10
250 250 10
250 250 10
250 250 10
250 250 10
250 250 10
250 250 10
250 250 10
250 250 10
250 250 10
250 250 10
250 250 10
250 250 10
250 250 10
250 250 10
250 250 10
250 250 10
250 250 10
250 250 10
250 250 10
